<svg height="16px" viewBox="0 0 356 26" version="1.1" xmlns="http://www.w3.org/2000/svg" xmlns:xlink="http://www.w3.org/1999/xlink">
    <!-- Generator: Sketch 54.1 (76490) - https://sketchapp.com -->
    <defs>
        <linearGradient x1="0%" y1="49.7333039%" x2="100%" y2="50.2666961%" id="linearGradient-1">
            <stop stop-color="#bbbbcf" offset="0%"></stop>
            <stop stop-color="#bbbbcf" offset="100%"></stop>
        </linearGradient>
    </defs>
    <g id="LOGO" stroke="none" stroke-width="1" fill="none" fill-rule="evenodd">
        <g id="logo">
            <path d="M0,13 L0,0 L6.5,0 L13,0 L13,13 L13,26 L6.5,26 L0,26 L0,13 Z M16,13 L16,0 L24.8,0 C34.9,0 35.9,0.5 40,7.5 L43,12.5 L43,6.2 L43,0 L49.5,0 L56,0 L56,13 L56,26 L47.4,26 C42.7,26 38,25.6 37,25 C36,24.5 33.9,21.9 32.4,19.3 L29.5,14.5 L29.2,20.2 L28.9,26 L22.5,26 L16,26 L16,13 Z M59.7,1.8 C61.1,0.2 63,0.0001 74.7,0.0001 L88,0.0001 L88,3.5001 L88,6.9001 L79.8,7.2001 C75.1,7.4001 71.5,7.9001 71.5,8.5001 C71.5,9.1 75.1,9.6 79.8,9.8 L88,10.1 L88,13.5 L88,16.9 L79.8,17.2 L71.5,17.5 L71.2,21.7 L70.9,26 L64.4,26 L58,26 L58,14.8 C58,5.8 58.3,3.3 59.7,1.8 Z M90,13 L90,0 L104.8,0 C121.9,0 123,0.4 123.7,7.1 C124.1,10.5 123.8,12.1 122.2,14 L120.2,16.5 L123.3,20.7 C125,23.1 126.7,25 127,25 C127.4,25 132.1,19.4 137.4,12.5 L147.1,0 L157.5,0 L168,0 L168,13 L168,26 L161.5,26 L155.1,26 L154.8,18.4 L154.5,10.7 L149,18.4 L143.6,26 L126.8,26 L110.1,26 L107.4,22.5 C106,20.6 104.4,19 103.9,19 C103.4,19 103,20.6 103,22.5 L103,26 L96.5,26 L90,26 L90,13 Z M109.5,9.5 C109.5,8 108.7,7.4 106.3,7.2 C103.3,6.9 103,7.1 103,9.5 C103,11.9 103.3,12.1 106.3,11.8 C108.7,11.6 109.5,11 109.5,9.5 Z M170,11.8 L170,0 L176.5,0 L182.9,0 L183.2,9.2 L183.5,18.5 L191.8,18.8 L200,19.1 L200,22.5 L200,26 L186.2,26 C176.8,26 172,25.6 171.2,24.8 C170.4,24 170,19.6 170,11.8 Z M202,6.9 L202,0 L208.4,0 L214.9,0 L215.2,4.7 C215.5,9.3 215.6,9.5 218.5,9.5 C221.4,9.5 221.5,9.3 221.8,4.7 L222.1,0 L228.6,0 L235,0 L235,11.1 C235,17.2 234.5,23 234,24.1 C233,25.9 231.7,26 217.5,26 L202,26 L202,22.5 L202,19 L211.4,19 C216.7,19 221.2,18.6 221.5,18 C221.9,17.4 219.3,17 214.3,17 C203.3,17 202,16 202,6.9 Z M238,3.5 L238,0 L254,0 L270,0 L270,3.5 C270,7 270,7 265.5,7 L261,7 L261,16.5 L261,26 L254,26 L247,26 L247,16.5 L247,7 L242.5,7 C238,7 238,7 238,3.5 Z M272,13 L272,0 L278.5,0 L285,0 L285,13 L285,26 L278.5,26 L272,26 L272,13 Z M288,13 L288,0 L294.5,0 L301,0 L301,3.5 L301,7.1 L304.1,3.5 C307,0.2 307.5,0 313.6,0 L320,0 L320,3.5 C320,6.5 319.7,7 317.7,7 C314.6,7 311,9.7 311,12.1 C311,14.7 315.3,19 318,19 C319.6,19 320,19.6 320,22.5 L320,26 L313.1,26 C306.6,26 306,25.8 303.6,22.9 L301,19.8 L301,22.9 L301,26 L294.5,26 L288,26 L288,13 Z M324.7,1.8 C326.1,0.2 328,0 341.2,0 L356,0 L356,3.5 L356,6.9 L346.3,7.2 C339.7,7.4 336.5,7.9 336.2,8.7 C335.9,9.7 337.9,10 344,10 C354.8,10 356,10.7 356,17.2 C356,25.7 355.3,26 337.8,26 L323,26 L323,22.5 L323,19 L332.4,19 C337.7,19 342.2,18.6 342.5,18 C342.9,17.4 340.2,17 335.1,17 C328.3,17 326.7,16.7 325,15 C322.4,12.4 322.2,4.5 324.7,1.8 Z" id="Combined-Shape" fill="url(#linearGradient-1)"></path>
            <path d="M127,26 L143.6,26 L149,18.4 L154.5,10.7 L154.8,18.4 L155.1,26 L161.5,26 L168,26 L168,13 L168,0 L157.5,0 L147.1,0 L137.4,12.5 C132.1,19.4 127,25 127,25 C127,25 127,25.3333333 127,26 Z" id="Shape" fill="#bbbbcf"></path>
        </g>
    </g>
</svg>