<?xml version="1.0" encoding="utf-8"?>
<!-- Generator: Adobe Illustrator 24.0.0, SVG Export Plug-In . SVG Version: 6.00 Build 0)  -->
<svg version="1.1" id="Ebene_1" xmlns="http://www.w3.org/2000/svg" xmlns:xlink="http://www.w3.org/1999/xlink" x="0px" y="0px"
	 viewBox="0 0 267 34" style="enable-background:new 0 0 267 34;" xml:space="preserve">
<style type="text/css">
	.st0{enable-background:new    ;}
	.st1{fill:#bbbbcf;}
	.st2{fill:#bbbbcf;}
</style>
<g id="Logo_Robotec_Solutions" transform="translate(-151 -243)">
	<g class="st0">
		<path class="st1" d="M152.6,251.2l5.1-0.6v3.6h0.1c1.1-3.3,3-3.9,6.1-3.9l-1.6,5.8c-2.9,0-3.9,1.1-3.9,4v9.7l-5.8,0.6V251.2z"/>
		<path class="st1" d="M163.3,260.5c0-5.9,5-10.1,10.6-10.1c5.6,0,10.6,4.3,10.6,10.1c0,5.9-5,10.1-10.6,10.1
			C168.3,270.6,163.3,266.3,163.3,260.5z M173.9,265.2c2.6,0,4.8-2.1,4.8-4.8s-2.3-4.8-4.8-4.8c-2.6,0-4.8,2.1-4.8,4.8
			S171.3,265.2,173.9,265.2z"/>
		<path class="st1" d="M191.6,243.6v8.6h0.1c1.1-1.4,3.1-1.9,5-1.9c5.7,0,9.7,4.8,9.7,10.3c0,5.6-4.6,10-10.1,10
			c-6.6,0-10.4-3.9-10.4-10.5v-15.9L191.6,243.6z M195.7,265.2c2.8,0,4.8-2.2,4.8-4.8c0-2.6-2.1-4.8-4.8-4.8c-2.8,0-4.9,2.2-4.9,4.8
			C190.8,263,192.9,265.2,195.7,265.2z"/>
		<path class="st1" d="M207,260.5c0-5.9,5-10.1,10.6-10.1c5.6,0,10.6,4.3,10.6,10.1c0,5.9-5,10.1-10.6,10.1
			C212,270.6,207,266.3,207,260.5z M217.6,265.2c2.6,0,4.8-2.1,4.8-4.8s-2.3-4.8-4.8-4.8c-2.6,0-4.8,2.1-4.8,4.8
			S215,265.2,217.6,265.2z"/>
		<path class="st1" d="M228.7,256l1.2-4.8h1.8v-3.8l5.8-2.2v6h3.3v4.8h-3.3v6.7c0,1.9,1.4,2.4,3.1,2.4c0.5,0,1.3-0.1,1.5-0.2
			l-1.7,5.7c-0.3,0-0.6,0.1-0.9,0.1c-5.1,0-7.8-2.4-7.8-7.5V256H228.7z"/>
		<path class="st1" d="M249.8,264c0.7,1,2,1.4,3.1,1.4c2,0,4-1,5.5-2.2l3,4.4c-2.5,1.7-5.4,3-8.7,3c-6.1,0-10.2-5.3-10.2-9.9
			c0-5.7,4.5-10.4,10-10.4c4,0,7.7,2.3,9.5,5.8L249.8,264z M255.2,255.9c-0.6-0.6-1.6-0.8-2.6-0.8c-2.5,0-4.5,2.4-4.5,4.8v0.7
			L255.2,255.9z"/>
		<path class="st1" d="M276.7,256.8c-1-0.9-2.4-1.3-3.7-1.3c-2.6,0-4.7,1.9-4.7,4.6c0,3,1.9,5.3,4.8,5.3c1.4,0,2.6-0.4,3.7-1.4
			l3.1,4.1c-1.5,1.6-4.8,2.4-6.9,2.4c-6.5,0-10.5-4.7-10.5-9.8c0-6.3,4.4-10.5,10.5-10.5c2.4,0,4.9,0.8,6.7,2.3L276.7,256.8z"/>
	</g>
	<g class="st0">
		<path class="st2" d="M295.2,266.4c1.4,1.3,2.6,2,4.5,2c2.1,0,3.9-1.1,3.9-3.3c0-4.5-9.5-1.9-9.5-8.2c0-3.3,2.9-5.3,6-5.3
			c2.2,0,3.7,0.9,5.4,2.1l-1.2,1.7c-1.3-0.9-2.7-1.7-4.3-1.7c-2.1,0-3.8,1-3.8,3.1c0,4.5,9.5,1.5,9.5,8.2c0,3.8-2.9,5.5-6.4,5.5
			c-2.2,0-4.2-1.1-5.7-2.7L295.2,266.4z"/>
		<path class="st2" d="M325.6,261c0,4.9-3.9,9.5-9.3,9.5c-5.3,0-9.2-4.6-9.2-9.5s3.9-9.5,9.2-9.5C321.7,251.5,325.6,256.1,325.6,261
			z M309.2,261c0,3.9,3.1,7.4,7.2,7.4c4.1,0,7.2-3.5,7.2-7.4s-3.1-7.4-7.2-7.4C312.3,253.6,309.2,257.1,309.2,261z"/>
		<path class="st2" d="M330.7,270l-2.1,0.4v-26.1l2.1-0.4V270z"/>
		<path class="st2" d="M337,251.5v12c0,3.2,1.3,5.1,4.4,5.1c3.4,0,5.5-1.2,5.5-8.5v-8.1l2.1-0.4V270l-2.1,0.3v-3h-0.1
			c-0.7,1.6-2.9,3.1-5.7,3.1c-4.6,0-6.3-2.6-6.3-6.7v-11.8L337,251.5z"/>
		<path class="st2" d="M352.9,247.5l2.1-1.2v5.6h4.9v2.1H355v11.2c0,2.2,0.9,3,3.2,3c0.6,0,1.1,0,1.7-0.1v1.9
			c-0.6,0.1-1.2,0.2-1.9,0.2c-3.3,0-5.1-1.9-5.1-5.1V254h-2.4l0.5-2.1h1.9V247.5z"/>
		<path class="st2" d="M365.1,245.8l-1.7,1.9l-1.7-1.9l1.7-1.9L365.1,245.8z M362.6,270.4v-18.5l2.1-0.4V270L362.6,270.4z"/>
		<path class="st2" d="M386.2,261c0,4.9-3.9,9.5-9.2,9.5c-5.3,0-9.3-4.6-9.3-9.5s3.9-9.5,9.3-9.5C382.2,251.5,386.2,256.1,386.2,261
			z M369.8,261c0,3.9,3.1,7.4,7.2,7.4c4.1,0,7.2-3.5,7.2-7.4s-3.1-7.4-7.2-7.4C372.8,253.6,369.8,257.1,369.8,261z"/>
		<path class="st2" d="M388.2,270.3v-18.4l2.1-0.4v3h0.1c1-1.6,3-3,5.2-3c3.5,0,6.7,1.4,6.7,6.4V270l-2.1,0.3v-12.9
			c0-2.6-1.7-4-4.6-4c-2,0-5.4,1.4-5.4,4.9V270L388.2,270.3z"/>
		<path class="st2" d="M405.8,266.4c1.4,1.3,2.6,2,4.5,2c2.1,0,3.9-1.1,3.9-3.3c0-4.5-9.5-1.9-9.5-8.2c0-3.3,2.9-5.3,6-5.3
			c2.2,0,3.7,0.9,5.4,2.1l-1.2,1.7c-1.3-0.9-2.7-1.7-4.3-1.7c-2.1,0-3.8,1-3.8,3.1c0,4.5,9.5,1.5,9.5,8.2c0,3.8-2.9,5.5-6.4,5.5
			c-2.2,0-4.2-1.1-5.7-2.7L405.8,266.4z"/>
	</g>
</g>
</svg>
